<svg xmlns="http://www.w3.org/2000/svg" xmlns:svg="http://www.w3.org/2000/svg" xmlns:xlink="http://www.w3.org/1999/xlink" id="svg8" width="940.039" height="941.414" version="1.1" viewBox="0 0 248.719 249.082"><defs id="defs2"><linearGradient id="paint0_linear" x1="1067.82" x2="778.906" y1="811.704" y2="402.609" gradientTransform="matrix(0.26458333,0,0,0.26458333,-122.61547,3.6285728)" gradientUnits="userSpaceOnUse"><stop id="stop24" stop-color="#CD3E70"/><stop id="stop26" offset="1" stop-color="#A534C3"/></linearGradient><linearGradient id="paint1_linear" x1="1168.32" x2="906.404" y1="336.227" y2="-68.4" gradientTransform="matrix(0.26458333,0,0,0.26458333,-122.61547,3.6285728)" gradientUnits="userSpaceOnUse"><stop id="stop29" stop-color="#FBD249"/><stop id="stop31" offset="1" stop-color="#F5A623"/></linearGradient><linearGradient id="paint2_linear" x1="570" x2="570" y1="956" y2="61" gradientTransform="matrix(0.26458333,0,0,0.26458333,-122.61547,3.6285728)" gradientUnits="userSpaceOnUse"><stop id="stop34" stop-color="#963CD7"/><stop id="stop36" offset="1" stop-color="#0482D7"/></linearGradient><linearGradient id="paint3_linear" x1="290.656" x2="102.289" y1="691.66" y2="748.77" gradientTransform="matrix(0.26458333,0,0,0.26458333,-122.61547,3.6285728)" gradientUnits="userSpaceOnUse"><stop id="stop39" stop-color="#1FBE84"/><stop id="stop41" offset="1" stop-color="#0082D5"/></linearGradient><linearGradient id="linearGradient175" x1="1067.82" x2="778.906" y1="811.704" y2="402.609" gradientTransform="matrix(0.26458333,0,0,0.26458333,-122.61547,3.6285728)" gradientUnits="userSpaceOnUse" xlink:href="#paint0_linear"/><linearGradient id="linearGradient177" x1="1168.32" x2="906.404" y1="336.227" y2="-68.4" gradientTransform="matrix(0.26458333,0,0,0.26458333,-122.61547,3.6285728)" gradientUnits="userSpaceOnUse" xlink:href="#paint1_linear"/><linearGradient id="linearGradient179" x1="570" x2="570" y1="956" y2="61" gradientTransform="matrix(0.26458333,0,0,0.26458333,-122.61547,3.6285728)" gradientUnits="userSpaceOnUse" xlink:href="#paint2_linear"/><linearGradient id="linearGradient181" x1="290.656" x2="102.289" y1="691.66" y2="748.77" gradientTransform="matrix(0.26458333,0,0,0.26458333,-122.61547,3.6285728)" gradientUnits="userSpaceOnUse" xlink:href="#paint3_linear"/></defs><metadata id="metadata5"/><g id="layer1" transform="translate(386.92384,11.741694)"><path id="path12-6" d="m -261.18411,-5.7170351 c 36.78884,-0.066603 72.91339,18.2896401 94.67058,47.8748481 16.37599,21.693034 24.50943,49.109632 23.47032,76.191707 0,37.95216 0,75.90432 0,113.85648 -79.08011,0 -158.16022,0 -237.24033,0 -0.32563,-35.76389 18.59335,-70.86877 48.54491,-90.45561 16.16438,-10.79396 35.29,-17.08664 54.71176,-18.01946 0.005,-6.94081 0.009,-13.88164 0.0141,-20.82245 -34.4818,0.25924 -68.96358,0.5189 -103.44538,0.77788 2.70221,-39.051658 26.43192,-75.706971 60.78785,-94.4855882 17.77432,-9.92304652 38.13227,-15.0690385 58.48622,-14.9178069 z" style="opacity:1;fill:#fff;fill-opacity:1;stroke:#fff;stroke-width:12.0523;stroke-miterlimit:4;stroke-dasharray:none;stroke-opacity:1;stop-opacity:1"/><g id="g108" transform="matrix(-1.005152,0,0,1.0035592,-249.34013,-25.116556)"><path id="path12" fill="url(#paint0_linear)" fill-rule="evenodd" d="M 27.932445,256.57024 H 130.85536 C 130.78577,198.64448 85.148325,151.3936 27.862595,148.73798 Z" clip-rule="evenodd" style="opacity:1;fill:url(#linearGradient175);stroke-width:.264583;stop-opacity:1"/><path id="path14" fill="url(#paint1_linear)" fill-rule="evenodd" d="M -104.36705,126.73099 C -98.738465,66.72667 -48.229719,19.768156 13.24807,19.768156 c 62.081303,0 112.97814,47.886408 117.76816,108.735814 z" clip-rule="evenodd" style="opacity:1;fill:url(#linearGradient177);stroke-width:.264583;stop-opacity:1"/><path id="path16" fill="url(#paint2_linear)" fill-rule="evenodd" d="M 28.197028,256.57024 H -104.88839 V 137.90276 c 0,-65.243867 52.891005,-118.134604 118.13646,-118.134604 5.011208,0 9.949391,0.311997 14.796294,0.917654 z" clip-rule="evenodd" style="opacity:1;fill:url(#linearGradient179);stroke-width:.264583;stop-opacity:1"/><path id="path18" fill="url(#paint3_linear)" fill-rule="evenodd" d="M 3.0616117,256.57024 H -104.88839 v -107.95 c 59.587344,0.0714 107.8785643,48.36266 107.9500017,107.95 z" clip-rule="evenodd" style="opacity:1;fill:url(#linearGradient181);stroke-width:.264583;stop-opacity:1"/><path id="path20" fill="#302B41" fill-rule="evenodd" d="m -24.85193,91.470238 c 7.37923,0 13.361459,-5.982229 13.361459,-13.361458 0,-7.379229 -5.982229,-13.361458 -13.361459,-13.361458 -7.379229,0 -13.361458,5.982229 -13.361458,13.361458 0,7.379229 5.982229,13.361458 13.361458,13.361458 z" clip-rule="evenodd" style="opacity:1;stroke-width:.264583;stop-opacity:1"/><path id="path22" fill="#FAFAFA" fill-rule="evenodd" d="m -24.85193,84.591072 c 3.580077,0 6.482292,-2.902215 6.482292,-6.482292 0,-3.580077 -2.902215,-6.482291 -6.482292,-6.482291 -3.580077,0 -6.482291,2.902214 -6.482291,6.482291 0,3.580077 2.902214,6.482292 6.482291,6.482292 z" clip-rule="evenodd" style="opacity:1;stroke-width:.264583;stop-opacity:1"/></g></g></svg>